<?xml version="1.0" standalone="yes"?>
<svg width="500" height="500">
<path style="fill:#000000; stroke:none;" d="M0 0L0 500L500 500L500 0L0 0z"/>
<path style="fill:#996699; stroke:none;" d="M156 190L156 191L159 191L156 190z"/>
<path style="fill:#9069b1; stroke:none;" d="M104 191L104 192L112 192L104 191z"/>
<path style="fill:#dd9b79; stroke:none;" d="M142 195L142 196L163 192C156.249 189.167 148.059 191.556 142 195z"/>
<path style="fill:#666699; stroke:none;" d="M163.667 191.333L164.333 191.667L163.667 191.333z"/>
<path style="fill:#e67e73; stroke:none;" d="M97 193L97 194L117 193L97 193z"/>
<path style="fill:#ffd057; stroke:none;" d="M151 192L151 193L159 196L155 196L155 197C161.014 200.042 167.798 202.543 169.51 210.004C171.648 219.324 164.777 226.505 170 236C178.515 233.183 179.677 207.122 175.062 200.465C169.265 192.102 159.998 192 151 192z"/>
<path style="fill:#c4b88e; stroke:none;" d="M165 192L175 200L165 192z"/>
<path style="fill:#ff833e; stroke:none;" d="M97 194C100.874 200.495 111.849 201.424 115 194L97 194z"/>
<path style="fill:#ffc44f; stroke:none;" d="M114 193L110 199L110 200C115.93 200.749 127.641 205.145 129 197L122 197L123 194L114 193z"/>
<path style="fill:#80719c; stroke:none;" d="M117 193L117 194L122 194L117 193z"/>
<path style="fill:#0000ff; stroke:none;" d="M122 193L123 194L122 193z"/>
<path style="fill:#ff8f49; stroke:none;" d="M135 201L135 202L141 199C144.887 204.806 152.173 199.169 158 199L158 198L155 197L155 196L159 196C153.745 187.894 140.468 197.315 135 201z"/>
<path style="fill:#6d6db6; stroke:none;" d="M190 193L190 194L193 194L190 193z"/>
<path style="fill:#4080bf; stroke:none;" d="M215 193L216 194L215 193z"/>
<path style="fill:#00ffff; stroke:none;" d="M230 193L231 194L230 193z"/>
<path style="fill:#55aaaa; stroke:none;" d="M231 193L231 194L234 194L231 193z"/>
<path style="fill:#558eaa; stroke:none;" d="M252 193L252 194L260 194L252 193z"/>
<path style="fill:#00ffff; stroke:none;" d="M260 193L261 194L260 193z"/>
<path style="fill:#5580aa; stroke:none;" d="M261 193L261 194L264 194L261 193z"/>
<path style="fill:#00ffff; stroke:none;" d="M347 193L348 194L347 193z"/>
<path style="fill:#3c9687; stroke:none;" d="M326 194L326 195L356 195C349.564 190.609 333.923 194 326 194z"/>
<path style="fill:#ce4265; stroke:none;" d="M102 243C95.4882 226.071 76.3082 210.91 97 195C90.2155 194.096 86.624 203.474 85.8974 209C84.3246 220.961 92.769 235.875 102 243z"/>
<path style="fill:#957683; stroke:none;" d="M123 194L123 195L126 195L123 194z"/>
<path style="fill:#5555aa; stroke:none;" d="M188.333 194.667L188.667 195.333L188.333 194.667z"/>
<path style="fill:#d0e2f8; stroke:none;" d="M189 196L216 195C210.953 192.882 192.696 191.77 189 196z"/>
<path style="fill:#7490b1; stroke:none;" d="M216 194L216 201L217 201L216 194z"/>
<path style="fill:#4e89b1; stroke:none;" d="M229 194L230 195L229 194z"/>
<path style="fill:#cde3f0; stroke:none;" d="M230 194L230 195L264 195L230 194z"/>
<path style="fill:#648590; stroke:none;" d="M264 194L265 195L264 194z"/>
<path style="fill:#00ffff; stroke:none;" d="M266.667 194.333L267.333 194.667L266.667 194.333z"/>
<path style="fill:#55aaaa; stroke:none;" d="M283 194L283 195L298 195L283 194z"/>
<path style="fill:#00ffff; stroke:none;" d="M298.667 194.333L299.333 194.667L298.667 194.333M303 194L304 195L303 194z"/>
<path style="fill:#508f9f; stroke:none;" d="M307 194L307 195L314 195L307 194z"/>
<path style="fill:#00ffff; stroke:none;" d="M315.667 194.333L316.333 194.667L315.667 194.333z"/>
<path style="fill:#f9583b; stroke:none;" d="M96 195C91.1396 206.251 93.9591 214.859 97 226L93 227C95.1307 236.067 103.819 246.26 111 252C106.621 236.798 85.4608 213.293 102 200L96 195z"/>
<path style="fill:#f0be77; stroke:none;" d="M122 195L122 197L129 197L129 201L130 201L130 196L122 195z"/>
<path style="fill:#8080bf; stroke:none;" d="M126 195L126 196L133 197L126 195z"/>
<path style="fill:#fff8fb; stroke:none;" d="M190 195L193.945 208L187 266C199.468 264.313 208.891 259.842 214 248L215 248L213 267L234.185 259.157L241.86 244L256 211L257 211L245 261C249.918 261 261.289 263.126 265.262 259.972C270.012 256.201 271.516 237.925 272 232L279 236L275 261C279.535 261 289.577 262.897 293.262 259.972C296.216 257.627 296.323 250.46 297.119 247C299.871 235.033 302.429 223.007 305 211C305.787 207.325 309.11 198.971 305.397 196.028C301.42 192.876 289.895 195 285 195L231 195C235.033 204.527 236.83 205.654 234 216L223 205L220 205L214 217L213 217L216 195L190 195z"/>
<path style="fill:#808080; stroke:none;" d="M230.333 195.667L230.667 196.333L230.333 195.667z"/>
<path style="fill:#e0ffff; stroke:none;" d="M306 195L306 196C319.872 200.1 338.529 197 353 197L349 215L334 215L335 209L328 209L326 221L345 221C339.203 227.343 328.068 229.837 323.14 235.603C319.041 240.398 318.126 252.907 318 259L302 259C305.178 246.101 307.302 232.917 310.475 220C312.585 211.407 314.675 204.273 307 198L310.424 209L300 261L318.86 259.397L325.588 237.603L351 221L351 220L329 220L332 211L331 217L351 217L355 195L306 195z"/>
<path style="fill:#7bbaba; stroke:none;" d="M355 195L355 198L356 198L357 195L355 195z"/>
<path style="fill:#ff3f34; stroke:none;" d="M92 228L97 226C95.0649 214.754 91.0822 207.383 96 196C83.1948 202.119 86.9087 217.891 92 228z"/>
<path style="fill:#bc6d80; stroke:none;" d="M123 210L142 197C135.739 196.093 126.578 205.335 123 210z"/>
<path style="fill:#6680b3; stroke:none;" d="M189.333 196.667L189.667 197.333L189.333 196.667z"/>
<path style="fill:#ff969c; stroke:none;" d="M193 196L193 197L214 197L193 196z"/>
<path style="fill:#ff969b; stroke:none;" d="M234 196L234 197L251 197L234 196z"/>
<path style="fill:#dbbecc; stroke:none;" d="M130 200L133 197L130 200z"/>
<path style="fill:#ff3131; stroke:none;" d="M193 197C199.79 218.503 190.015 240.628 190 263C204.222 259.71 211.208 252.424 217 239L218 239L216 264C221.087 262.345 228.379 261.051 232.363 257.301C240.278 249.851 244.466 232.869 248.861 223C251.105 217.961 257.937 208.551 255.461 203.005C251.909 195.044 242.073 197 235 197C241.191 207.791 237.138 214.481 231 225C229.173 217.331 229.052 211.758 221 208L211 227L210 227L214 197L193 197z"/>
<path style="fill:#f6df93; stroke:none;" d="M254 197L256 200L276 198L276 203L277 203L278 197L254 197z"/>
<path style="fill:#fddf59; stroke:none;" d="M283 197C285.193 202.712 292.021 217.229 282.772 221.397C279.01 223.092 273.06 222 269 222C270.985 227.686 275.939 233.063 282 234L278 258L292.142 256.397L296.091 242L302.905 212L303.933 198.603L283 197z"/>
<path style="fill:#65b2de; stroke:none;" d="M307 197L307 198L353 199L340 197L307 197z"/>
<path style="fill:#6978b4; stroke:none;" d="M190.333 198.667L190.667 199.333L190.333 198.667z"/>
<path style="fill:#6688b2; stroke:none;" d="M232 198L233 199L232 198z"/>
<path style="fill:#ffdd60; stroke:none;" d="M257 198L259.633 208.004L249 259C252.781 259 260.139 260.411 263.272 257.972C267.324 254.82 271.082 234.022 269.485 229.289C268.096 225.172 263.515 222.433 261 219L273 219L276 198L257 198z"/>
<path style="fill:#38b7fe; stroke:none;" d="M309 198C315.476 217.735 304 237.294 304 258C307.463 258 313.504 259.139 316.436 256.972C321.029 253.579 322.266 238.453 323 233C331.649 232.97 338.548 228.698 344 222L326 222L328 209L335 209L335 214C348.006 214 351.409 211.726 352 198L309 198z"/>
<path style="fill:#d9797b; stroke:none;" d="M101 200L101 201L114 201L101 200z"/>
<path style="fill:#fb6d3b; stroke:none;" d="M140 199L116 216L116 217C125.852 215.442 136.077 208.681 144 203L144 202L140 199z"/>
<path style="fill:#f6a97b; stroke:none;" d="M150 200L150 201L164 201C159.924 198.216 154.589 198.644 150 200z"/>
<path style="fill:#ff9b9a; stroke:none;" d="M213 199L213 202L214 202L213 199z"/>
<path style="fill:#666699; stroke:none;" d="M233.333 199.667L233.667 200.333L233.333 199.667z"/>
<path style="fill:#89ceca; stroke:none;" d="M354 199L354 202L355 202L354 199z"/>
<path style="fill:#0000ff; stroke:none;" d="M130 200L131 201L130 200z"/>
<path style="fill:#99819c; stroke:none;" d="M150 201L150 202L161 201L150 201z"/>
<path style="fill:#5b80b6; stroke:none;" d="M191.333 200.667L191.667 201.333L191.333 200.667z"/>
<path style="fill:#478e9c; stroke:none;" d="M279 200L278 210L279 210L279 200z"/>
<path style="fill:#000000; stroke:none;" d="M280 200L277 219C286.055 217.523 285.85 205.049 280 200z"/>
<path style="fill:#b25d8f; stroke:none;" d="M97 205L101 201L97 205z"/>
<path style="fill:#dc9d84; stroke:none;" d="M114 201L114 202L127 203L114 201z"/>
<path style="fill:#808080; stroke:none;" d="M127 203L130 201L127 203z"/>
<path style="fill:#df977e; stroke:none;" d="M140 205L140 206L150 202L140 205z"/>
<path style="fill:#90806f; stroke:none;" d="M162.667 201.333L163.333 201.667L162.667 201.333z"/>
<path style="fill:#5980a6; stroke:none;" d="M234 201L235 202L234 201z"/>
<path style="fill:#9a9a9a; stroke:none;" d="M176.333 202.667L176.667 203.333L176.333 202.667z"/>
<path style="fill:#4d80b3; stroke:none;" d="M192 202L193 212L194 212L192 202z"/>
<path style="fill:#5580aa; stroke:none;" d="M215 202L214 215L215 215L223 204L220 203L216 208L215 202z"/>
<path style="fill:#608eaa; stroke:none;" d="M235 202L236 203L235 202z"/>
<path style="fill:#398e9c; stroke:none;" d="M307 202L306 210L307 210L307 202z"/>
<path style="fill:#408080; stroke:none;" d="M354 202L354 205L355 205L354 202z"/>
<path style="fill:#ab88ab; stroke:none;" d="M123 203L123 204L127 204L123 203z"/>
<path style="fill:#6080af; stroke:none;" d="M236 203L236 209L237 209L236 203z"/>
<path style="fill:#5893a7; stroke:none;" d="M283 203L284 204L283 203z"/>
<path style="fill:#8b749b; stroke:none;" d="M143.667 204.333L144.333 204.667L143.667 204.333z"/>
<path style="fill:#808080; stroke:none;" d="M167.333 204.667L167.667 205.333L167.333 204.667z"/>
<path style="fill:#ffaba3; stroke:none;" d="M240 204L240 207L241 207L240 204z"/>
<path style="fill:#4d8c8c; stroke:none;" d="M284 204L284 212L285 212L284 204z"/>
<path style="fill:#4e8585; stroke:none;" d="M309 204L310 208L311 208L309 204z"/>
<path style="fill:#82bcb4; stroke:none;" d="M353 204L353 207L354 207L353 204z"/>
<path style="fill:#9c5aad; stroke:none;" d="M96.3333 205.667L96.6667 206.333L96.3333 205.667z"/>
<path style="fill:#e3d493; stroke:none;" d="M177 205L177 217L178 217L177 205z"/>
<path style="fill:#ee8f8d; stroke:none;" d="M212 205L212 208L213 208L212 205z"/>
<path style="fill:#c2d2ec; stroke:none;" d="M223 205L227 209L223 205z"/>
<path style="fill:#9674a1; stroke:none;" d="M139.667 206.333L140.333 206.667L139.667 206.333z"/>
<path style="fill:#98b1d7; stroke:none;" d="M214 206L214 210L215 210L214 206z"/>
<path style="fill:#b45a8f; stroke:none;" d="M95 207L95 216L96 216L95 207z"/>
<path style="fill:#ff9895; stroke:none;" d="M196 207L196 210L197 210L196 207z"/>
<path style="fill:#6d8092; stroke:none;" d="M169 208L169 216L170 216L169 208z"/>
<path style="fill:#95bfcc; stroke:none;" d="M277.333 208.667L277.667 209.333L277.333 208.667z"/>
<path style="fill:#91c2c6; stroke:none;" d="M305.333 208.667L305.667 209.333L305.333 208.667z"/>
<path style="fill:#93beca; stroke:none;" d="M310.333 208.667L310.667 209.333L310.333 208.667z"/>
<path style="fill:#5555aa; stroke:none;" d="M178 209L178 214L179 214L178 209z"/>
<path style="fill:#7087af; stroke:none;" d="M227 209L228 210L227 209z"/>
<path style="fill:#5889b1; stroke:none;" d="M235 209L235 212L236 212L235 209z"/>
<path style="fill:#4d9999; stroke:none;" d="M309 209L309 213L310 213L309 209z"/>
<path style="fill:#d05a6a; stroke:none;" d="M112 220L119 218L119 217L116 217L116 216L123 210L112 220z"/>
<path style="fill:#a76f99; stroke:none;" d="M131.667 210.333L132.333 210.667L131.667 210.333z"/>
<path style="fill:#6c93b5; stroke:none;" d="M228 210L229 211L228 210z"/>
<path style="fill:#49869e; stroke:none;" d="M277 210L276 219L277 219L277 210z"/>
<path style="fill:#4a8a95; stroke:none;" d="M305 210L304 219L305 219L305 210z"/>
<path style="fill:#5da2a2; stroke:none;" d="M352.333 210.667L352.667 211.333L352.333 210.667z"/>
<path style="fill:#c6697b; stroke:none;" d="M122 216L131 212C127.163 210.951 124.445 213.158 122 216z"/>
<path style="fill:#df4952; stroke:none;" d="M219 211L215 220L216 220L219 211z"/>
<path style="fill:#729eb4; stroke:none;" d="M229 211L230 212L229 211z"/>
<path style="fill:#adbec2; stroke:none;" d="M256 211L255 214L256 211z"/>
<path style="fill:#448888; stroke:none;" d="M330 211L329 219L352 219L352 218L331 217L332 211L330 211z"/>
<path style="fill:#76c2e4; stroke:none;" d="M334 211L334 215L349 215L349 214C343.596 214 338.163 214.974 334 211z"/>
<path style="fill:#8080ff; stroke:none;" d="M85.3333 212.667L85.6667 213.333L85.3333 212.667z"/>
<path style="fill:#ff00ff; stroke:none;" d="M129 212L130 213L129 212z"/>
<path style="fill:#bac7ea; stroke:none;" d="M193 212L193 217L194 217L193 212z"/>
<path style="fill:#ff8890; stroke:none;" d="M211 212L211 215L212 215L211 212z"/>
<path style="fill:#64839b; stroke:none;" d="M230 212L234 216L235 212L230 212z"/>
<path style="fill:#96c2d2; stroke:none;" d="M284.333 212.667L284.667 213.333L284.333 212.667z"/>
<path style="fill:#bc4d6d; stroke:none;" d="M146 213L151 225L152 225L152 222L156 225L146 213z"/>
<path style="fill:#4b879e; stroke:none;" d="M283 213L281 219L283 213z"/>
<path style="fill:#428e97; stroke:none;" d="M308 213L308 218L309 218L308 213z"/>
<path style="fill:#98d2da; stroke:none;" d="M309 213L309 216L310 216L309 213z"/>
<path style="fill:#88c4c4; stroke:none;" d="M351 213L351 217L352 217L353 213L351 213z"/>
<path style="fill:#ff00ff; stroke:none;" d="M116 214L117 215L116 214z"/>
<path style="fill:#ec8886; stroke:none;" d="M195 214L195 218L196 218L195 214z"/>
<path style="fill:#c2c5d1; stroke:none;" d="M213 214L213 217L215 216L215 215L213 214z"/>
<path style="fill:#5b8092; stroke:none;" d="M255 214L252 222L255 222L255 214z"/>
<path style="fill:#a45d91; stroke:none;" d="M119 216L119 217L122 217L119 216z"/>
<path style="fill:#e06b74; stroke:none;" d="M230 216L230 224L231 224L230 216z"/>
<path style="fill:#748b8b; stroke:none;" d="M177 217L177 221L178 221L177 217z"/>
<path style="fill:#74a9b5; stroke:none;" d="M275 217C275.854 220.987 279.489 220 283 220L283 219L275 217z"/>
<path style="fill:#a4ced9; stroke:none;" d="M283.333 217.667L283.667 218.333L283.333 217.667z"/>
<path style="fill:#9ac5ca; stroke:none;" d="M303.333 217.667L303.667 218.333L303.333 217.667z"/>
<path style="fill:#000000; stroke:none;" d="M334 217L334 218L338 218L334 217z"/>
<path style="fill:#6e8ab3; stroke:none;" d="M192 218L192 221L193 221L192 218z"/>
<path style="fill:#478e8e; stroke:none;" d="M307 218L307 222L308 222L307 218z"/>
<path style="fill:#945ab2; stroke:none;" d="M111 219L108 223L113 220L111 219z"/>
<path style="fill:#f68f92; stroke:none;" d="M210 219L210 222L211 222L210 219z"/>
<path style="fill:#fee996; stroke:none;" d="M261 219L262 222L273 220L261 219z"/>
<path style="fill:#518b8b; stroke:none;" d="M303 219L303 224L304 224L303 219z"/>
<path style="fill:#91ccce; stroke:none;" d="M329 219L329 220L352 221C348.103 216.54 334.715 219 329 219z"/>
<path style="fill:#bceaff; stroke:none;" d="M326 221L326 222L345 223C341.486 218.978 331.091 221 326 221z"/>
<path style="fill:#439486; stroke:none;" d="M350 221L351 222L350 221z"/>
<path style="fill:#ff3135; stroke:none;" d="M152 222L171 264L177 264C176.958 248.721 163.89 231.1 152 222z"/>
<path style="fill:#808080; stroke:none;" d="M176 222L176 226L177 226L176 222z"/>
<path style="fill:#ffa0a6; stroke:none;" d="M194 222L194 225L195 225L194 222z"/>
<path style="fill:#639cb8; stroke:none;" d="M251 222L250 227L251 227L251 222z"/>
<path style="fill:#95c2c4; stroke:none;" d="M302.333 222.667L302.667 223.333L302.333 222.667z"/>
<path style="fill:#409999; stroke:none;" d="M306 222L306 227L307 227L306 222z"/>
<path style="fill:#8bcbd0; stroke:none;" d="M307.333 222.667L307.667 223.333L307.333 222.667z"/>
<path style="fill:#408080; stroke:none;" d="M347 224L350 222L347 224z"/>
<path style="fill:#898992; stroke:none;" d="M167 223L167 226L168 226L167 223z"/>
<path style="fill:#5186a1; stroke:none;" d="M253 223L253 226L254 226L253 223z"/>
<path style="fill:#8da3ce; stroke:none;" d="M191 224L191 230L192 230L191 224z"/>
<path style="fill:#468d95; stroke:none;" d="M302 224L297 251L298 251L302 224z"/>
<path style="fill:#00ffff; stroke:none;" d="M303 224L304 225L303 224z"/>
<path style="fill:#479c8e; stroke:none;" d="M346 224L347 225L346 224z"/>
<path style="fill:#a45789; stroke:none;" d="M152 225L153 229L154 229L152 225z"/>
<path style="fill:#b54e7d; stroke:none;" d="M156 225L160 230L156 225z"/>
<path style="fill:#408080; stroke:none;" d="M343 227L346 225L343 227z"/>
<path style="fill:#ff00ff; stroke:none;" d="M100 226L101 227L100 226z"/>
<path style="fill:#608a9f; stroke:none;" d="M252 226L252 231L253 231L252 226z"/>
<path style="fill:#aecbd8; stroke:none;" d="M253.333 226.667L253.667 227.333L253.333 226.667z"/>
<path style="fill:#a8cad6; stroke:none;" d="M301.333 226.667L301.667 227.333L301.333 226.667z"/>
<path style="fill:#bd6589; stroke:none;" d="M100 227L102 230L100 227z"/>
<path style="fill:#a9a49d; stroke:none;" d="M166 227L170 236L166 227z"/>
<path style="fill:#858580; stroke:none;" d="M175 227L175 230L176 230L175 227z"/>
<path style="fill:#558095; stroke:none;" d="M249.333 227.667L249.667 228.333L249.333 227.667z"/>
<path style="fill:#3c8796; stroke:none;" d="M305 227L305 231L306 231L305 227z"/>
<path style="fill:#408080; stroke:none;" d="M342 227L343 228L342 227z"/>
<path style="fill:#409f80; stroke:none;" d="M340.667 228.333L341.333 228.667L340.667 228.333z"/>
<path style="fill:#ff00ff; stroke:none;" d="M91 229L92 230L91 229z"/>
<path style="fill:#8080aa; stroke:none;" d="M130.667 229.333L131.333 229.667L130.667 229.333z"/>
<path style="fill:#c24972; stroke:none;" d="M154 229C157.84 242.33 167.96 252.603 168 267L170 267C169.966 255.093 162.978 237.043 154 229z"/>
<path style="fill:#ff00ff; stroke:none;" d="M160 229L161 230L160 229z"/>
<path style="fill:#5571aa; stroke:none;" d="M190 229L190 237L191 237L190 229z"/>
<path style="fill:#55809c; stroke:none;" d="M248.333 229.667L248.667 230.333L248.333 229.667z"/>
<path style="fill:#4a9c94; stroke:none;" d="M339 229L340 230L339 229z"/>
<path style="fill:#e77a75; stroke:none;" d="M102 230C102.593 235.79 108.72 254.236 114 256C113.149 247.693 107.306 236.404 102 230z"/>
<path style="fill:#ffa741; stroke:none;" d="M128 230L128 231L132 231L132 241C136.999 239.236 135.185 234.382 135 230L128 230z"/>
<path style="fill:#b84e76; stroke:none;" d="M160 230L164 235L160 230z"/>
<path style="fill:#6d8092; stroke:none;" d="M174 230L174 234L175 234L174 230z"/>
<path style="fill:#409f80; stroke:none;" d="M336 232L339 230L336 232z"/>
<path style="fill:#a75d87; stroke:none;" d="M125 234L128 231L125 234z"/>
<path style="fill:#fc7f45; stroke:none;" d="M133 242L132 231C123.695 232.324 124.783 241.727 133 242z"/>
<path style="fill:#efcc78; stroke:none;" d="M135 231L133 241L133 242C138.77 240.369 138.955 234.873 135 231z"/>
<path style="fill:#5f8aaf; stroke:none;" d="M247 231L245 238L246 238L247 231z"/>
<path style="fill:#3b9393; stroke:none;" d="M304 231L304 236L305 236L304 231z"/>
<path style="fill:#8bcace; stroke:none;" d="M305 231L305 234L306 234L305 231z"/>
<path style="fill:#50809f; stroke:none;" d="M251 232L251 235L252 235L251 232z"/>
<path style="fill:#5595aa; stroke:none;" d="M272 232L272 236L273 236L274 232L272 232z"/>
<path style="fill:#519494; stroke:none;" d="M335 232L336 233L335 232z"/>
<path style="fill:#ff00ff; stroke:none;" d="M155 233L156 234L155 233z"/>
<path style="fill:#7196a3; stroke:none;" d="M274 233L275 234L274 233z"/>
<path style="fill:#7adaff; stroke:none;" d="M323 233L323 234L330 234L323 233z"/>
<path style="fill:#55aaaa; stroke:none;" d="M332 235L335 233L332 235z"/>
<path style="fill:#db495c; stroke:none;" d="M124 234L124 239L126 239L126 234L124 234z"/>
<path style="fill:#ff00ff; stroke:none;" d="M164 234L165 235L164 234z"/>
<path style="fill:#76a6b9; stroke:none;" d="M275 234L276 235L275 234z"/>
<path style="fill:#b15480; stroke:none;" d="M164 235L168 240L164 235z"/>
<path style="fill:#8a8383; stroke:none;" d="M173.333 235.667L173.667 236.333L173.333 235.667z"/>
<path style="fill:#5e84a1; stroke:none;" d="M250 235L250 240L251 240L250 235z"/>
<path style="fill:#a8c8d9; stroke:none;" d="M251.333 235.667L251.667 236.333L251.333 235.667z"/>
<path style="fill:#dba895; stroke:none;" d="M91 236L90 244L91 244L91 239L96 242L91 236z"/>
<path style="fill:#bec0cd; stroke:none;" d="M170 236L173 239L170 236z"/>
<path style="fill:#4d8099; stroke:none;" d="M271 236L271 242L272 242L271 236z"/>
<path style="fill:#588993; stroke:none;" d="M277 236L278 240L279 240L277 236z"/>
<path style="fill:#478599; stroke:none;" d="M303 236L302 245L303 245L303 236z"/>
<path style="fill:#449999; stroke:none;" d="M325 236L325 237L331 237L325 236z"/>
<path style="fill:#ffaaaf; stroke:none;" d="M192 237L192 240L193 240L192 237z"/>
<path style="fill:#75beb8; stroke:none;" d="M324 237L324 240L326 239L326 238L324 237z"/>
<path style="fill:#00ffff; stroke:none;" d="M325 237L326 238L325 237z"/>
<path style="fill:#5180a2; stroke:none;" d="M244.333 238.667L244.667 239.333L244.333 238.667z"/>
<path style="fill:#ff8b4e; stroke:none;" d="M91 239L88 259L89 259L90 257L93 259C95.4296 251.697 99.9455 243.312 91 239z"/>
<path style="fill:#b05d88; stroke:none;" d="M125 239L127 242L125 239z"/>
<path style="fill:#ffb0b4; stroke:none;" d="M217 239L217 245L218 245L217 239z"/>
<path style="fill:#8f809f; stroke:none;" d="M136.333 240.667L136.667 241.333L136.333 240.667z"/>
<path style="fill:#b55175; stroke:none;" d="M168 240L170 243L168 240z"/>
<path style="fill:#5a87a5; stroke:none;" d="M243.333 240.667L243.667 241.333L243.333 240.667z"/>
<path style="fill:#5d93a2; stroke:none;" d="M249 240L249 245L250 245L249 240z"/>
<path style="fill:#94c4d1; stroke:none;" d="M270.333 240.667L270.667 241.333L270.333 240.667z"/>
<path style="fill:#8fc7d3; stroke:none;" d="M298.333 240.667L298.667 241.333L298.333 240.667z"/>
<path style="fill:#907aa6; stroke:none;" d="M89 241L89 244L90 244L89 241z"/>
<path style="fill:#b68aa4; stroke:none;" d="M96 241L96 252L97 252L96 241z"/>
<path style="fill:#9cadd7; stroke:none;" d="M189 241L189 245L190 245L189 241z"/>
<path style="fill:#69a6a2; stroke:none;" d="M324 241L323 245L324 245L324 241z"/>
<path style="fill:#d3a3a1; stroke:none;" d="M127 242L127 243L136 243L127 242z"/>
<path style="fill:#517994; stroke:none;" d="M242.333 242.667L242.667 243.333L242.333 242.667z"/>
<path style="fill:#508f9f; stroke:none;" d="M270 242L269 251L270 251L270 242M277 242L277 245L278 245L277 242z"/>
<path style="fill:#aa55aa; stroke:none;" d="M102 243L104 246L102 243z"/>
<path style="fill:#996e88; stroke:none;" d="M129 243L129 244L134 244L129 243z"/>
<path style="fill:#bb4e78; stroke:none;" d="M170 243L172 246L170 243z"/>
<path style="fill:#f59596; stroke:none;" d="M191 244L191 248L192 248L191 244z"/>
<path style="fill:#55809f; stroke:none;" d="M241.333 244.667L241.667 245.333L241.333 244.667z"/>
<path style="fill:#8bb1c2; stroke:none;" d="M248 245L248 251L249 251L248 245z"/>
<path style="fill:#4e899d; stroke:none;" d="M276 245L276 249L277 249L276 245z"/>
<path style="fill:#b47a88; stroke:none;" d="M104 246L110 253L104 246z"/>
<path style="fill:#af5274; stroke:none;" d="M172 246L174 249L172 246z"/>
<path style="fill:#4b96a5; stroke:none;" d="M301 246L301 250L302 250L301 246z"/>
<path style="fill:#76b8bd; stroke:none;" d="M322.333 246.667L322.667 247.333L322.333 246.667z"/>
<path style="fill:#92a0c6; stroke:none;" d="M188 247L188 253L189 253L188 247z"/>
<path style="fill:#6184a7; stroke:none;" d="M240 247L241 248L240 247z"/>
<path style="fill:#a9b1c3; stroke:none;" d="M214 248L214 253L215 253L214 248z"/>
<path style="fill:#408080; stroke:none;" d="M322 248L321 254L322 254L322 248z"/>
<path style="fill:#e1696b; stroke:none;" d="M87 249L87 273L88 273L87 249z"/>
<path style="fill:#9d5c82; stroke:none;" d="M174 249L176 252L174 249z"/>
<path style="fill:#ffa3a6; stroke:none;" d="M216 249L216 256L217 256L216 249z"/>
<path style="fill:#666699; stroke:none;" d="M239.333 249.667L239.667 250.333L239.333 249.667z"/>
<path style="fill:#99c4ce; stroke:none;" d="M268.333 249.667L268.667 250.333L268.333 249.667z"/>
<path style="fill:#94c6ca; stroke:none;" d="M296 249L296 252L297 252L296 249z"/>
<path style="fill:#5571aa; stroke:none;" d="M213 250L213 257L214 257L213 250z"/>
<path style="fill:#558095; stroke:none;" d="M275 250L275 254L276 254L275 250z"/>
<path style="fill:#458993; stroke:none;" d="M300 250L300 254L301 254L300 250z"/>
<path style="fill:#5b80a4; stroke:none;" d="M238.333 251.667L238.667 252.333L238.333 251.667z"/>
<path style="fill:#608a9f; stroke:none;" d="M247 251L247 254L248 254L247 251z"/>
<path style="fill:#77a5b8; stroke:none;" d="M268 251C265.547 263.599 256.897 261 246 261L246 262C253.848 262 273.472 265.026 268 251z"/>
<path style="fill:#62b0d4; stroke:none;" d="M303 251L302 259L318 257L304 258L303 251z"/>
<path style="fill:#ba6d9b; stroke:none;" d="M95 252L95 270L96 270L95 252z"/>
<path style="fill:#a05a92; stroke:none;" d="M155 252L148 255L151 258L155 252z"/>
<path style="fill:#6080bf; stroke:none;" d="M187 252L186 266L187 266L187 252z"/>
<path style="fill:#408c99; stroke:none;" d="M296 252L296 256L297 256L296 252z"/>
<path style="fill:#95618d; stroke:none;" d="M176 253L177 257L178 257L176 253z"/>
<path style="fill:#6483b2; stroke:none;" d="M211 253L212 254L211 253z"/>
<path style="fill:#5985a6; stroke:none;" d="M237.333 253.667L237.667 254.333L237.333 253.667z"/>
<path style="fill:#a389b5; stroke:none;" d="M114 254L112 257L117 261L114 254z"/>
<path style="fill:#5d74a2; stroke:none;" d="M210.333 254.667L210.667 255.333L210.333 254.667z"/>
<path style="fill:#478e9c; stroke:none;" d="M274 254L274 258L275 258L274 254z"/>
<path style="fill:#f5da95; stroke:none;" d="M277 254L277 259L292 259L292 258L278 258L277 254z"/>
<path style="fill:#8ebcbf; stroke:none;" d="M295.333 254.667L295.667 255.333L295.333 254.667z"/>
<path style="fill:#409595; stroke:none;" d="M299 254L299 259L300 259L299 254z"/>
<path style="fill:#a4ccd3; stroke:none;" d="M300.333 254.667L300.667 255.333L300.333 254.667z"/>
<path style="fill:#55aaaa; stroke:none;" d="M236 255L235 259L236 259L236 255z"/>
<path style="fill:#5b8092; stroke:none;" d="M246 255L246 258L247 258L246 255z"/>
<path style="fill:#72bdc2; stroke:none;" d="M320 255L320 258L321 258L320 255z"/>
<path style="fill:#dc5c69; stroke:none;" d="M93 256L93 267L94 267L93 256z"/>
<path style="fill:#ff00ff; stroke:none;" d="M95 256L96 257L95 256z"/>
<path style="fill:#a0598e; stroke:none;" d="M144 257L144 258L148 257L144 257z"/>
<path style="fill:#ff2f38; stroke:none;" d="M93 259L89 257C82.6112 272.101 93.8617 284.001 109 282.91C120.693 282.067 130.095 272.521 138.985 265.829C143.002 262.805 147.717 260.635 150 256C135.725 260.878 93.3091 293.143 93 259z"/>
<path style="fill:#6d86b6; stroke:none;" d="M209 256L210 257L209 256z"/>
<path style="fill:#528f8f; stroke:none;" d="M295 256L295 261L296 261L295 256z"/>
<path style="fill:#c65c62; stroke:none;" d="M177 257L177 268L178 268L177 257z"/>
<path style="fill:#5d74a2; stroke:none;" d="M208.333 257.667L208.667 258.333L208.333 257.667z"/>
<path style="fill:#95abcb; stroke:none;" d="M213 257L212 262L213 257z"/>
<path style="fill:#9b5897; stroke:none;" d="M140 259L140 260L144 259L140 259z"/>
<path style="fill:#aa55aa; stroke:none;" d="M148 258L148 260L150 258L148 258z"/>
<path style="fill:#ff00ff; stroke:none;" d="M167 258L168 259L167 258z"/>
<path style="fill:#7ca7b1; stroke:none;" d="M274 258L273 261C277.394 262.606 293.847 264.381 295 259L294 259C289.149 262.675 278.423 262.223 274 258z"/>
<path style="fill:#ff6545; stroke:none;" d="M170 259L171 273C175.589 271.349 176.74 268.731 177 264L171 264L170 259z"/>
<path style="fill:#7792b8; stroke:none;" d="M207 259L208 260L207 259z"/>
<path style="fill:#408080; stroke:none;" d="M298.333 259.667L298.667 260.333L298.333 259.667z"/>
<path style="fill:#96e1e4; stroke:none;" d="M299.333 259.667L299.667 260.333L299.333 259.667z"/>
<path style="fill:#7ca8af; stroke:none;" d="M319 259L299 261L299 262C302.959 262 320.417 264.948 319 259z"/>
<path style="fill:#408080; stroke:none;" d="M320.333 259.667L320.667 260.333L320.333 259.667z"/>
<path style="fill:#8055aa; stroke:none;" d="M85 260L85 266L86 266L85 260z"/>
<path style="fill:#ff00ff; stroke:none;" d="M138 260L139 261L138 260z"/>
<path style="fill:#c84570; stroke:none;" d="M133 263L133 264L141 261L133 263z"/>
<path style="fill:#8080aa; stroke:none;" d="M178 260L178 265L179 265L178 260z"/>
<path style="fill:#7d9bc9; stroke:none;" d="M206 260L207 261L206 260z"/>
<path style="fill:#0000ff; stroke:none;" d="M212 260L213 261L212 260z"/>
<path style="fill:#60809f; stroke:none;" d="M232.667 260.333L233.333 260.667L232.667 260.333z"/>
<path style="fill:#b25188; stroke:none;" d="M144 261L144 263L146 261L144 261z"/>
<path style="fill:#6080bf; stroke:none;" d="M194 264L194 265L205 262L194 264z"/>
<path style="fill:#718fad; stroke:none;" d="M229.667 261.333L230.333 261.667L229.667 261.333z"/>
<path style="fill:#ff00ff; stroke:none;" d="M134 262L135 263L134 262z"/>
<path style="fill:#0000ff; stroke:none;" d="M212 262L213 263L212 262z"/>
<path style="fill:#6186aa; stroke:none;" d="M224 263L224 264L229 263L224 263z"/>
<path style="fill:#00ffff; stroke:none;" d="M276 262L277 263L276 262z"/>
<path style="fill:#a55787; stroke:none;" d="M138 267L144 264L138 267z"/>
<path style="fill:#b54c82; stroke:none;" d="M129 265L129 266L133 265L129 265z"/>
<path style="fill:#668fb2; stroke:none;" d="M221 264L221 265L224 265L221 264z"/>
<path style="fill:#ff00ff; stroke:none;" d="M128 265L129 266L128 265z"/>
<path style="fill:#708fb4; stroke:none;" d="M187 266L187 267L194 266L187 266z"/>
<path style="fill:#8095ca; stroke:none;" d="M212 265L216 268L216 267L212 265z"/>
<path style="fill:#55809c; stroke:none;" d="M219.667 265.333L220.333 265.667L219.667 265.333z"/>
<path style="fill:#b74d7d; stroke:none;" d="M121 269L121 270L128 267L121 269z"/>
<path style="fill:#00ffff; stroke:none;" d="M186 266L187 267L186 266z"/>
<path style="fill:#648ba2; stroke:none;" d="M216 266L216 267L219 267L216 266z"/>
<path style="fill:#a15599; stroke:none;" d="M134 270L138 267L134 270z"/>
<path style="fill:#ff00ff; stroke:none;" d="M167 267L168 268L167 267z"/>
<path style="fill:#ff9244; stroke:none;" d="M168 267L163 276L169 275L168 278L175 272L171 273L168 267z"/>
<path style="fill:#c2817d; stroke:none;" d="M167 268L162 273L162 274C165.253 273.058 167.746 271.651 167 268z"/>
<path style="fill:#a97f8d; stroke:none;" d="M177 268L174 276L175 276L177 268z"/>
<path style="fill:#00ffff; stroke:none;" d="M213 268L214 269L213 268z"/>
<path style="fill:#c34670; stroke:none;" d="M96 270C98.8561 275.68 104.203 276.332 110 275L110 274L96 270z"/>
<path style="fill:#b24f8b; stroke:none;" d="M117 271L117 272L121 271L117 271z"/>
<path style="fill:#ca4562; stroke:none;" d="M130 273L134 270L130 273z"/>
<path style="fill:#9981aa; stroke:none;" d="M137 271L137 272L141 272L137 271z"/>
<path style="fill:#e8bf93; stroke:none;" d="M135 275L141 273C138.12 271.902 136.65 272.445 135 275z"/>
<path style="fill:#89809b; stroke:none;" d="M141 272L141 273L149 274L141 272z"/>
<path style="fill:#ac4f9e; stroke:none;" d="M88 273L90 276L88 273z"/>
<path style="fill:#fab152; stroke:none;" d="M134 275L134 278C143.36 280.306 165.47 287.228 172 277L168 278L169 275L164 274L134 275z"/>
<path style="fill:#b6ada8; stroke:none;" d="M130 278L135 274L130 278z"/>
<path style="fill:#92787d; stroke:none;" d="M149 274L149 275L156 275L149 274z"/>
<path style="fill:#caa094; stroke:none;" d="M150 275L150 276L162 275L150 275z"/>
<path style="fill:#a7528e; stroke:none;" d="M111 283L111 284L128 276L111 283z"/>
<path style="fill:#ff00ff; stroke:none;" d="M89 276L90 277L89 276z"/>
<path style="fill:#f7d8aa; stroke:none;" d="M131 279L136 279L136 278L134 276L131 279z"/>
<path style="fill:#958295; stroke:none;" d="M172 276L172 278L174 276L172 276z"/>
<path style="fill:#bf497e; stroke:none;" d="M90 277L94 280L90 277z"/>
<path style="fill:#c1ac85; stroke:none;" d="M133 279L133 280L137 280L133 279z"/>
<path style="fill:#f6cf82; stroke:none;" d="M137 279L137 280L161 283L137 279z"/>
<path style="fill:#76769d; stroke:none;" d="M136 280L136 281L140 281L136 280z"/>
<path style="fill:#9f8b8e; stroke:none;" d="M165 281L165 282L169 281L165 281z"/>
<path style="fill:#d83f5e; stroke:none;" d="M97 282L97 283L111 284L97 282z"/>
<path style="fill:#9d9d9d; stroke:none;" d="M146 282L146 283L150 283L146 282z"/>
<path style="fill:#757595; stroke:none;" d="M161 282L161 283L165 283L161 282z"/>
<path style="fill:#8d8888; stroke:none;" d="M153 283L153 284L161 284L153 283z"/>
<path style="fill:#806abf; stroke:none;" d="M89 295L89 296L92 296L89 295z"/>
<path style="fill:#e6c5db; stroke:none;" d="M88 296L91 314L92 314L93 296L88 296z"/>
<path style="fill:#806d92; stroke:none;" d="M90 297L89 298L89 299L90 300L91 300L92 299L92 298L90 297z"/>
<path style="fill:#6666cc; stroke:none;" d="M87.3333 298.667L87.6667 299.333L87.3333 298.667z"/>
<path style="fill:#8c668c; stroke:none;" d="M89 301L90 316L91 316L89 301z"/>
<path style="fill:#0000ff; stroke:none;" d="M161 303L162 304L161 303z"/>
<path style="fill:#1f9d9d; stroke:none;" d="M315 309L315 310L319 310L318 329L335 327C335 320.568 332.828 311.303 341 310L341 328L336 328L336 329L370 329.289L385.358 328.397L387 314L386 314L385 328L377 325L372 328L372 311L384 311C377.829 306.784 366.267 309.012 359 309C354.815 308.993 350.025 309.104 346.09 307.441C343.369 306.291 341.351 303.251 338.155 303.426C330.792 303.829 323.357 308.828 315 309z"/>
<path style="fill:#6666cc; stroke:none;" d="M98.6667 304.333L99.3333 304.667L98.6667 304.333z"/>
<path style="fill:#b84c6e; stroke:none;" d="M158.643 305.042C156.171 307.012 159.118 310.505 161.707 308.918C165.064 306.86 161.426 302.824 158.643 305.042z"/>
<path style="fill:#44b2ed; stroke:none;" d="M336 308L340 308L340 304L336 308z"/>
<path style="fill:#a7949a; stroke:none;" d="M96 305L96 312L97 312L97 306L101 306L96 305z"/>
<path style="fill:#e33848; stroke:none;" d="M159 305L159 308L162 308L162 305L159 305z"/>
<path style="fill:#ddc7b9; stroke:none;" d="M97 306L93 319C97.4658 316.275 100.614 311.207 101 306L97 306z"/>
<path style="fill:#9f9fa4; stroke:none;" d="M101 306L101 310L102 310L101 306z"/>
<path style="fill:#877875; stroke:none;" d="M98 307L98 309L100 309L100 307L98 307z"/>
<path style="fill:#0000ff; stroke:none;" d="M157 308L158 309L157 308z"/>
<path style="fill:#9755bd; stroke:none;" d="M71 309L71 338L72 338L71 309z"/>
<path style="fill:#bc4a8c; stroke:none;" d="M72 309L72 334L100 333L100 332L74 333L74 309L72 309z"/>
<path style="fill:#a34aa9; stroke:none;" d="M74 309L74 311L90 311L90 309L74 309z"/>
<path style="fill:#8a7dba; stroke:none;" d="M111 309L111 310L115 311L111 309z"/>
<path style="fill:#ff00ff; stroke:none;" d="M136 309L137 310L136 309z"/>
<path style="fill:#926db6; stroke:none;" d="M142 309L142 310L147 311L142 309z"/>
<path style="fill:#9c588b; stroke:none;" d="M150 312L156 310C153.12 308.902 151.65 309.445 150 312z"/>
<path style="fill:#666699; stroke:none;" d="M189.667 309.333L190.333 309.667L189.667 309.333z"/>
<path style="fill:#8066b3; stroke:none;" d="M194 309L194 310L200 311L194 309z"/>
<path style="fill:#7474a2; stroke:none;" d="M207 309L207 310L211 310L207 309z"/>
<path style="fill:#0000ff; stroke:none;" d="M211 309L212 310L211 309z"/>
<path style="fill:#b45566; stroke:none;" d="M218 322L213 322L212 310L206 310C205.999 316.136 206.455 319.921 200 322L199 311L198 311L198 323L204 323L204 327L206 327L207 311L211 311C211 317.572 210.094 322.74 218 323L218 326L212 326L212 328L219 327C222.367 330.853 229.435 328.36 234 328L234 324L241 324L241 321C229.549 319.709 236.945 311.095 245 311L245 314C241.308 314.12 239.223 314.313 238 318C251.935 317.834 243.209 304.52 232 314L232 309C220.496 310.454 220.556 311.265 218 322z"/>
<path style="fill:#808080; stroke:none;" d="M238 309L238 310L243 310L238 309z"/>
<path style="fill:#86ac8b; stroke:none;" d="M274 309L274 310L282 310L274 309z"/>
<path style="fill:#4d9966; stroke:none;" d="M289 309L289 310L293 310L289 309z"/>
<path style="fill:#559580; stroke:none;" d="M295 309L293 310L298 315L297 309L295 309z"/>
<path style="fill:#49926d; stroke:none;" d="M299 309L299 310L305 310L299 309z"/>
<path style="fill:#aba391; stroke:none;" d="M109 311L109 312L113 314L114 310L109 311z"/>
<path style="fill:#ae4d91; stroke:none;" d="M133 318L134 318L133 312L138 312C133.48 306.904 132.386 314.478 133 318z"/>
<path style="fill:#be4972; stroke:none;" d="M141 310L140 314L139 312L138 312L138 318C141.936 316.694 142.537 313.704 141 310z"/>
<path style="fill:#fe3136; stroke:none;" d="M142 310C141.875 313.878 141.498 316.072 138 318L138 312L135 312C135.062 317.607 135.498 325.915 142 327L146 323C150.152 333.372 155.476 313.957 156 310C151.077 310.785 150.154 313.275 150 318L148 318L146 310L142 310z"/>
<path style="fill:#bf456c; stroke:none;" d="M156 310L157 328L163 328L163 310L162 310C162 315.78 163.671 323.687 158 327L156 310z"/>
<path style="fill:#e03b4b; stroke:none;" d="M158 310L158 327C164.077 324.863 162 315.325 162 310L158 310z"/>
<path style="fill:#ff00ff; stroke:none;" d="M165 310L166 311L165 310z"/>
<path style="fill:#b25578; stroke:none;" d="M166 310L166 311L175 311L166 310z"/>
<path style="fill:#ff00ff; stroke:none;" d="M180 310L181 311L180 310z"/>
<path style="fill:#ad527b; stroke:none;" d="M189 329L189 328L180 328L180 312L192 311L185 315L185 318L191 318L185 324C188.363 324 191.204 324.716 192 321L193 321L192 328L201 328L201 327L194 327C194 321.355 192.381 314.098 198 311C193.967 309.308 183.262 308.452 179.858 311.858C177.409 314.308 177.107 325.649 179.782 327.972C181.888 329.802 186.423 329 189 329z"/>
<path style="fill:#0000ff; stroke:none;" d="M232 310L233 311L232 310z"/>
<path style="fill:#499292; stroke:none;" d="M256.667 310.333L257.333 310.667L256.667 310.333z"/>
<path style="fill:#a7bc91; stroke:none;" d="M261 310L261 318L262 318L262 311L267 311L261 310z"/>
<path style="fill:#ffdc63; stroke:none;" d="M272.43 311.028C264.078 316.67 271.316 332.197 280.891 325.397C289.867 319.022 282.119 304.482 272.43 311.028z"/>
<path style="fill:#55aa55; stroke:none;" d="M282 310L284 312L284 310L282 310z"/>
<path style="fill:#aeac58; stroke:none;" d="M286 310L286 328L287 328L289 311L286 310z"/>
<path style="fill:#ffdf5b; stroke:none;" d="M287 328L292 328L292 322L293 322L295 328L297 328L301 323L301 327C305.598 323.751 304 316.09 304 311L295 317C294.47 314.107 290.566 306.569 287.603 312.434C285.603 316.394 287 323.631 287 328z"/>
<path style="fill:#e7e189; stroke:none;" d="M298 312L304 311C304 316.59 305.054 322.673 301 327L301 323L300 323L300 328L305 328L305 310L298 312z"/>
<path style="fill:#558877; stroke:none;" d="M305 310L305 311L312 311L305 310z"/>
<path style="fill:#a4d190; stroke:none;" d="M312 310L312 311L318 311L318 315L319 315L319 310L312 310z"/>
<path style="fill:#37b6ff; stroke:none;" d="M322 328L327 328L327 321L334 321C332.777 317.313 330.692 317.12 327 317L327 314L334 314L334 310C320.298 310 322 315.944 322 328z"/>
<path style="fill:#32afd4; stroke:none;" d="M335 328L341 328L341 310C332.3 310.678 335 321.417 335 328z"/>
<path style="fill:#38b5f8; stroke:none;" d="M342 328C349.134 327.98 363.93 321.19 354.386 312.009C351.85 309.57 344.457 308.781 342.603 312.434C340.599 316.384 342 323.638 342 328z"/>
<path style="fill:#39b9fa; stroke:none;" d="M358 311L358 328L370 328L370 323L364 323L364 321L370 321L370 317L363 317L363 315L370 315L370 310L358 311z"/>
<path style="fill:#000000; stroke:none;" d="M74 311L74 333L106 331L106 330L103 329L107 324L106 323L85 329L90 311L74 311z"/>
<path style="fill:#e9d9b7; stroke:none;" d="M111 311L98 318L98 319C101.608 318.357 112.154 315.687 111 311z"/>
<path style="fill:#bcb5d7; stroke:none;" d="M114 311L112 315L116 311L114 311z"/>
<path style="fill:#c24968; stroke:none;" d="M133 312C133.777 316.173 137.038 335.73 144 325L145 325L145 328C151.804 327.919 153.152 325.521 154 319L153 319C151.774 323.172 149.622 328.779 146 323L142 327C136.487 325.327 133.515 316.697 137 312L133 312z"/>
<path style="fill:#b94d86; stroke:none;" d="M146 311L148 314L146 311z"/>
<path style="fill:#ff3032; stroke:none;" d="M159 311L159 325L161 325L161 311L159 311z"/>
<path style="fill:#fd3235; stroke:none;" d="M164 311L164 328C166.993 327.936 168.346 328.054 169 325L178 328C177.545 315.349 178.079 311 164 311z"/>
<path style="fill:#975d80; stroke:none;" d="M175 311L178 313L175 311z"/>
<path style="fill:#ff3433; stroke:none;" d="M181 327L191 327L191 325L184 325L191 318L185 318L185 315C188.569 314.803 190.757 314.538 192 311C180.47 311.918 181 316.763 181 327z"/>
<path style="fill:#f43636; stroke:none;" d="M194 327L204 327L204 323L198 323L198 311C191.977 312.999 194 321.738 194 327z"/>
<path style="fill:#6d6db6; stroke:none;" d="M205 311L205 317L206 317L205 311z"/>
<path style="fill:#fd3238; stroke:none;" d="M207 311L206 328L218 326L218 323C210.536 322.431 211.001 317.25 211 311L207 311z"/>
<path style="fill:#db414b; stroke:none;" d="M220 328L227 328L227 327L221 327L221 313L231 312C218.512 306.76 220 319.785 220 328z"/>
<path style="fill:#f2383b; stroke:none;" d="M241 321L241 324L234 324L234 328C242.289 327.994 245.969 326.855 246 318L238 318L245 314L245 311C236.275 311.031 229.039 320.337 241 321z"/>
<path style="fill:#b3c99d; stroke:none;" d="M253 311L253 329L259 329L259 325L261 328L262 328L262 323L258 328L254 328C254 322.355 252.381 315.098 258 312L258 318L259 318L259 311L253 311z"/>
<path style="fill:#ffe05b; stroke:none;" d="M262 311L262 318L258 318L258 312C251.977 313.999 254 322.738 254 328L258 328C259.682 322.587 262.141 325.711 266 327L266 311L262 311z"/>
<path style="fill:#e2e0a5; stroke:none;" d="M266 311L266 327L263 324L262 324L262 328L267 328L266 311z"/>
<path style="fill:#7a8547; stroke:none;" d="M267 311L267 324L268 324L267 311z"/>
<path style="fill:#00ffff; stroke:none;" d="M295 311L296 312L295 311z"/>
<path style="fill:#a19e4b; stroke:none;" d="M305 311L305 328L306 328L307 311L305 311z"/>
<path style="fill:#f6e066; stroke:none;" d="M307 311L307 328L317 327L317 324L311 324L317 321L317 318L311 318L317 314L317 311L307 311z"/>
<path style="fill:#c6dd8d; stroke:none;" d="M317 311L311 318L317 318L318 323L311 322L317 324L317 327L313 327L313 328L319 328L319 317L312 317L312 316L318 315L317 311z"/>
<path style="fill:#38b7fe; stroke:none;" d="M336 311L336 327L340 327L340 311L336 311z"/>
<path style="fill:#3bb7ff; stroke:none;" d="M372 311L372 328C374.993 327.936 376.346 328.054 377 325L385 328C383.638 314.769 388.101 311 372 311z"/>
<path style="fill:#89769d; stroke:none;" d="M95 312L92 313L92 318L95 312z"/>
<path style="fill:#8080bf; stroke:none;" d="M98.3333 312.667L98.6667 313.333L98.3333 312.667z"/>
<path style="fill:#8c8092; stroke:none;" d="M107.667 312.333L108.333 312.667L107.667 312.333z"/>
<path style="fill:#da3d5c; stroke:none;" d="M180 312L180 328L192 328L192 324L185 322L184 322C184.796 325.716 187.637 325 191 325L191 327L181 327L183 313L180 312z"/>
<path style="fill:#f83533; stroke:none;" d="M221 313L221 327L231 327L231 324L226 324L226 322L231 318L225 318L231 312L221 313z"/>
<path style="fill:#668066; stroke:none;" d="M252 312L252 328L253 328L252 312z"/>
<path style="fill:#638e78; stroke:none;" d="M269 312L269 314L271 312L269 312z"/>
<path style="fill:#000000; stroke:none;" d="M295 312L296 313L295 312z"/>
<path style="fill:#cec55f; stroke:none;" d="M306 312L306 328L307 328L306 312z"/>
<path style="fill:#8e899d; stroke:none;" d="M105.667 313.333L106.333 313.667L105.667 313.333z"/>
<path style="fill:#ff8080; stroke:none;" d="M163.333 313.667L163.667 314.333L163.333 313.667z"/>
<path style="fill:#5555aa; stroke:none;" d="M199 313L199 317L200 317L199 313z"/>
<path style="fill:#efcead; stroke:none;" d="M91 314L86 327L91 326L91 314z"/>
<path style="fill:#666699; stroke:none;" d="M97.3333 314.667L97.6667 315.333L97.3333 314.667z"/>
<path style="fill:#71718e; stroke:none;" d="M95 319L105 315C101.715 313.368 96.3519 315.593 95 319z"/>
<path style="fill:#6b6ba1; stroke:none;" d="M109 314L109 315L114 316L114 315L109 314z"/>
<path style="fill:#a55a96; stroke:none;" d="M149 314L148 318L149 314z"/>
<path style="fill:#a0588b; stroke:none;" d="M154 314L154 320L155 320L156 314L154 314z"/>
<path style="fill:#bac66d; stroke:none;" d="M269 314L268 319L269 319L269 314z"/>
<path style="fill:#a2aa48; stroke:none;" d="M295 314L297 317L295 314z"/>
<path style="fill:#000000; stroke:none;" d="M296 314L297 315L296 314z"/>
<path style="fill:#22a6bb; stroke:none;" d="M346 314L350 317L346 314z"/>
<path style="fill:#6d6db6; stroke:none;" d="M100 319L100 320L107 320L107 319L105 318L109 316L100 319z"/>
<path style="fill:#0000ff; stroke:none;" d="M109 315L110 316L109 315z"/>
<path style="fill:#c34c6b; stroke:none;" d="M170 315L170 316L173 317L170 321C173.513 319.05 174.203 316.411 170 315z"/>
<path style="fill:#000000; stroke:none;" d="M192 315L192 320L193 320L192 315M232 315L232 326L233 326L236 323L232 315z"/>
<path style="fill:#6d9249; stroke:none;" d="M312 316L312 317L318 317L318 315L312 316z"/>
<path style="fill:#1ca6a6; stroke:none;" d="M377 315L377 320C380.844 318.723 380.844 316.277 377 315z"/>
<path style="fill:#8976ad; stroke:none;" d="M89 316L89 319L90 319L89 316z"/>
<path style="fill:#000000; stroke:none;" d="M97 316L98 317L97 316z"/>
<path style="fill:#bc4e73; stroke:none;" d="M169 316L169 320L170 320L169 316z"/>
<path style="fill:#000000; stroke:none;" d="M170 316L170 320L173 317L170 316M186 316L186 317L189 317L186 316z"/>
<path style="fill:#ff0000; stroke:none;" d="M227.667 316.333L228.333 316.667L227.667 316.333z"/>
<path style="fill:#000000; stroke:none;" d="M240.667 316.333L241.333 316.667L240.667 316.333z"/>
<path style="fill:#ff0000; stroke:none;" d="M242 316L243 317L242 316z"/>
<path style="fill:#499292; stroke:none;" d="M275 316L275 317L279 317L275 316z"/>
<path style="fill:#000000; stroke:none;" d="M274 321L279 317L274 321z"/>
<path style="fill:#749d82; stroke:none;" d="M279 317L279 320L280 320L279 317z"/>
<path style="fill:#b59441; stroke:none;" d="M91 318L91 320L93 318L91 318z"/>
<path style="fill:#f8e763; stroke:none;" d="M89 325C93.7228 324.511 96.2899 322.855 99 319C93.8992 318.485 89.8939 319.524 89 325z"/>
<path style="fill:#0000ff; stroke:none;" d="M199.333 318.667L199.667 319.333L199.333 318.667z"/>
<path style="fill:#9f7c50; stroke:none;" d="M99 319L97 320L97 321L99 319z"/>
<path style="fill:#6a6abf; stroke:none;" d="M116 319L116 320L119 320L116 319z"/>
<path style="fill:#0000ff; stroke:none;" d="M205 319L206 320L205 319z"/>
<path style="fill:#a25a6e; stroke:none;" d="M246 319L246 326L247 326L246 319z"/>
<path style="fill:#c9b091; stroke:none;" d="M100 320L100 321L116 321L100 320z"/>
<path style="fill:#b3b1c0; stroke:none;" d="M116 322L119 322L116 326C119.321 324.901 119.737 323.41 120 320L116 322z"/>
<path style="fill:#000000; stroke:none;" d="M178 320L178 325L179 325L178 320z"/>
<path style="fill:#1e9ec3; stroke:none;" d="M347 323L351 320L347 323z"/>
<path style="fill:#e8d6b0; stroke:none;" d="M97 323L116 324C114.998 319.323 99.1402 319.285 97 323z"/>
<path style="fill:#8c7399; stroke:none;" d="M117 321L116 324L119 322L117 321z"/>
<path style="fill:#7171c6; stroke:none;" d="M120 321L120 324L121 324L120 321z"/>
<path style="fill:#ff00ff; stroke:none;" d="M192 321L193 322L192 321M202 321L203 322L202 321z"/>
<path style="fill:#0000ff; stroke:none;" d="M203 321L204 322L203 321M214 321L215 322L214 321M216 321L217 322L216 321z"/>
<path style="fill:#bdcb96; stroke:none;" d="M268 321C269.395 327.833 273.863 327.995 280 328L280 327C274.187 326.931 271.836 325.181 268 321z"/>
<path style="fill:#669966; stroke:none;" d="M274.667 321.333L275.333 321.667L274.667 321.333z"/>
<path style="fill:#00ff00; stroke:none;" d="M276 321L277 322L276 321z"/>
<path style="fill:#5d8b74; stroke:none;" d="M284.333 321.667L284.667 322.333L284.333 321.667z"/>
<path style="fill:#bfc761; stroke:none;" d="M312 321L312 322L317 322L312 321z"/>
<path style="fill:#76893b; stroke:none;" d="M317 321L312 322L312 323L317 321z"/>
<path style="fill:#af97ac; stroke:none;" d="M87.3333 322.667L87.6667 323.333L87.3333 322.667z"/>
<path style="fill:#7d71a6; stroke:none;" d="M93 324L93 325L108 325L116 325C109.792 319.918 100.107 322.003 93 324z"/>
<path style="fill:#995599; stroke:none;" d="M153.333 322.667L153.667 323.333L153.333 322.667z"/>
<path style="fill:#000000; stroke:none;" d="M192 322L192 326L193 326L192 322z"/>
<path style="fill:#66997a; stroke:none;" d="M292 322L292 328L293 328L292 322z"/>
<path style="fill:#a85790; stroke:none;" d="M108 323L104 331L104 332L109 332L109 336L110 336L108 323z"/>
<path style="fill:#6d8679; stroke:none;" d="M283 323L280 327L283 323z"/>
<path style="fill:#739e79; stroke:none;" d="M299 323L299 328L300 328L299 323z"/>
<path style="fill:#0000ff; stroke:none;" d="M96 324L97 325L96 324z"/>
<path style="fill:#8570c2; stroke:none;" d="M85 325L86 329L89 328L89 327L85 325z"/>
<path style="fill:#89629d; stroke:none;" d="M91.6667 325.333L92.3333 325.667L91.6667 325.333z"/>
<path style="fill:#7366d9; stroke:none;" d="M107 325L103 329L107 331L107 325z"/>
<path style="fill:#a75690; stroke:none;" d="M169 325L164 328L164 329L170 329L172 326L169 325z"/>
<path style="fill:#55aa55; stroke:none;" d="M267 325L267 328L268 328L267 325z"/>
<path style="fill:#00ffff; stroke:none;" d="M331.667 325.333L332.333 325.667L331.667 325.333z"/>
<path style="fill:#80709f; stroke:none;" d="M89.6667 326.333L90.3333 326.667L89.6667 326.333z"/>
<path style="fill:#9f609f; stroke:none;" d="M172 326L177 329L172 326z"/>
<path style="fill:#896989; stroke:none;" d="M243 328L246 326L243 328z"/>
<path style="fill:#55806a; stroke:none;" d="M294.333 326.667L294.667 327.333L294.333 326.667z"/>
<path style="fill:#558e55; stroke:none;" d="M297.333 326.667L297.667 327.333L297.333 326.667z"/>
<path style="fill:#74748b; stroke:none;" d="M201 327L201 328L206 328L201 327z"/>
<path style="fill:#0000ff; stroke:none;" d="M85 328L86 329L85 328M229 328L230 329L229 328z"/>
<path style="fill:#9a6077; stroke:none;" d="M235 328L235 329L243 329L235 328z"/>
<path style="fill:#559580; stroke:none;" d="M261 328L261 329L267 329L261 328z"/>
<path style="fill:#499280; stroke:none;" d="M274 328L274 329L278 329L274 328z"/>
<path style="fill:#558e71; stroke:none;" d="M287 328L287 329L292 329L287 328z"/>
<path style="fill:#589c92; stroke:none;" d="M295.667 328.333L296.333 328.667L295.667 328.333z"/>
<path style="fill:#58957b; stroke:none;" d="M300 328L300 329L318 329L300 328z"/>
<path style="fill:#608080; stroke:none;" d="M253 329L253 330L257 330L253 329z"/>
<path style="fill:#00ffff; stroke:none;" d="M307 329L308 330L307 329z"/>
<path style="fill:#ff00ff; stroke:none;" d="M101 331L102 332L101 331z"/>
<path style="fill:#d5425c; stroke:none;" d="M100 332L100 333L108 333L108 335L96 335L96 336L109 336L109 332L100 332z"/>
<path style="fill:#fd3134; stroke:none;" d="M73 335L73 337L91 339.539L108 335L108 333L73 335z"/>
<path style="fill:#e23a51; stroke:none;" d="M72 334L72 338L82 338L82 337L73 337L73 335L92 335L72 334z"/>
<path style="fill:#b84884; stroke:none;" d="M95 336C90.4885 340.956 87.6916 337.418 82 337L82 338L87 339L85 340L85 341L97 341L97 336L95 336z"/>
<path style="fill:#9d5caa; stroke:none;" d="M97 338L107 337C103.756 335.639 99.4372 335.211 97 338z"/>
<path style="fill:#8080ff; stroke:none;" d="M108 336L109 337L108 336z"/>
<path style="fill:#a155aa; stroke:none;" d="M72 338L72 339L80 339L72 338z"/>
<path style="fill:#ff00ff; stroke:none;" d="M80 338L81 339L80 338M90.6667 341.333L91.3333 341.667L90.6667 341.333z"/>
</svg>
